<svg xmlns="http://www.w3.org/2000/svg" id="b526d522-7956-48b6-80d5-6c1c02732ba6" data-name="Layer 1" viewBox="0 0 979.62 249.1"><path d="M231.6,80.5a62,62,0,0,0-61.9-62.2h-.3a62,62,0,0,0-88,0h-.1A62,62,0,0,0,19.2,80.5a62,62,0,0,0,0,88,62.14,62.14,0,0,0,62,62.3h.2a62,62,0,0,0,88,0h0a62.14,62.14,0,0,0,62.2-62.3,62,62,0,0,0,0-88ZM79.5,97.7a7.84,7.84,0,0,1-1.1,1.8A7.84,7.84,0,0,0,79.5,97.7Zm147,46.2A62.41,62.41,0,0,0,216,127.4a31.15,31.15,0,0,0-2.6-2.7l-23.1-23.1a9.22,9.22,0,0,0-10.2-2,9.41,9.41,0,0,0-5.6,6.8,9.51,9.51,0,0,0,2.6,8.5l23.2,23.2c.8.8,1.5,1.5,2.3,2.4a43.4,43.4,0,0,1,9.9,21.5,43.38,43.38,0,0,1-29.2,47.7,61,61,0,0,0,4.2-19c.1-1.1.1-2.4.1-3.7V154.3a9.49,9.49,0,0,0-5.8-8.7,9.22,9.22,0,0,0-8.8.9,9.41,9.41,0,0,0-4.2,7.8V187c0,1,0,2.1-.1,3.3s-.2,2.1-.3,3a43.37,43.37,0,0,1-7.9,19.2,43.48,43.48,0,0,1-34.9,17.7,39.06,39.06,0,0,1-9.1-1,44.89,44.89,0,0,1-10.3-3.6,63,63,0,0,0,14.1-8.5,22,22,0,0,0,2.3-2,31.15,31.15,0,0,0,2.7-2.6l23.1-23.1a9.22,9.22,0,0,0,2-10.2,9.41,9.41,0,0,0-6.8-5.6,9.51,9.51,0,0,0-8.5,2.6l-23.2,23.2c-.8.8-1.5,1.5-2.4,2.3A43.4,43.4,0,0,1,88,211.6a43.38,43.38,0,0,1-47.7-29.2,61,61,0,0,0,19,4.2c1.1.1,2.4.1,3.7.1H95.7a9.49,9.49,0,0,0,8.7-5.8,9.22,9.22,0,0,0-.9-8.8,9.55,9.55,0,0,0-7.8-4.2H63c-1,0-2.1,0-3.3-.1l-3-.3a43.37,43.37,0,0,1-19.2-7.9,43.48,43.48,0,0,1-17.7-34.9,43.28,43.28,0,0,1,4.6-19.4,62.41,62.41,0,0,0,10.5,16.5c.7.8,1.6,1.7,2.6,2.7l23.1,23.1a9.22,9.22,0,0,0,10.2,2,9.41,9.41,0,0,0,5.6-6.8,9.51,9.51,0,0,0-2.6-8.5L50.6,111.1c-.8-.8-1.5-1.6-2.3-2.4A43.3,43.3,0,0,1,67.6,39.5a61.63,61.63,0,0,0-4.2,19c-.1,1.1-.1,2.4-.1,3.7V94.9a9.49,9.49,0,0,0,5.8,8.7,9.22,9.22,0,0,0,8.8-.9,9.55,9.55,0,0,0,4.2-7.8V62.1c0-1,0-2.1.1-3.4a42.65,42.65,0,0,1,8-21.9,43.5,43.5,0,0,1,11.9-11.3,43.38,43.38,0,0,1,42.6-2.1,62.41,62.41,0,0,0-16.5,10.5c-.8.7-1.7,1.6-2.7,2.6L102.4,59.6a9.22,9.22,0,0,0-2,10.2,9.41,9.41,0,0,0,6.8,5.6,9.24,9.24,0,0,0,8.5-2.6L139,49.7c.8-.8,1.5-1.5,2.4-2.3a43.87,43.87,0,0,1,21.5-9.9,35.73,35.73,0,0,1,4.7-.4,23.48,23.48,0,0,1,2.7-.1,36.26,36.26,0,0,1,7.3.8,43.31,43.31,0,0,1,33,28.9,61,61,0,0,0-19-4.2c-1.1-.1-2.4-.1-3.7-.1H155.2a9.49,9.49,0,0,0-8.7,5.8,9.22,9.22,0,0,0,.9,8.8,9.55,9.55,0,0,0,7.8,4.2h32.7c1,0,2.1,0,3.3.1l3,.3a43.37,43.37,0,0,1,19.2,7.9c1.1.8,2,1.6,2.9,2.3a41.41,41.41,0,0,1,7.3,8.3,43.34,43.34,0,0,1,2.9,43.8Z" transform="translate(-0.9)" fill="#ff2368"></path><path d="M328,68.91,320.15,124h48.24a25.1,25.1,0,0,1-24.82,21.36h-26.4l-5.68,40.69a31.14,31.14,0,0,1-30.84,26.84h0L303.84,47.55H390A25.41,25.41,0,0,1,364.9,68.91Zm57,98.54c0-40.88,22.28-71.66,61.56-71.66,30.09,0,46.62,17.68,46.62,48,0,40.65-22.28,71.43-61.55,71.43C401.24,215.23,384.93,197.54,384.93,167.45Zm82-23c0-17.68-7.81-27.79-22.51-27.79-22.51,0-33.54,25.73-33.54,49.62,0,17.91,8,28,22.51,28C455.9,194.33,466.93,168.83,466.93,144.48Zm138.5,52.14a44.66,44.66,0,0,0-.46,5.52,18.06,18.06,0,0,0,1.84,8.73c-5.74,2.75-10.79,4.36-16.77,4.36-5.74,0-10.1-4.13-10.1-11.94a24.42,24.42,0,0,1,.23-3.45l1.14-11.25c-10.56,17.91-23.88,26.64-39.27,26.64-18.15,0-33.31-13.78-33.31-40.89,0-43.64,23.66-78.55,67.07-78.55,4.6,0,11.26.23,18.38.46l8.5-58.8c5.05-2.07,9.87-3.68,14.93-3.68,6.2,0,9.64,3.45,9.64,10.11a17.72,17.72,0,0,1-.23,3Zm-18.6-48.69L591.42,116c-6-.23-11.71-.46-16.54-.46-26.18,0-39,24.58-39,51.68,0,17.23,5.51,27.11,17.22,27.11C566.38,194.33,582,180.78,586.83,147.93Zm142.64,54.21a18.17,18.17,0,0,0,1.83,8.73c-5.74,2.75-10.79,4.36-16.76,4.36-5.75,0-10.11-4.36-10.11-12.4a17.88,17.88,0,0,1,.23-3l1.15-10.79c-10.57,17.68-23.66,26.18-39,26.18-18.15,0-33.31-13.78-33.31-40.89,0-43.64,23.66-78.55,67.07-78.55,10.34,0,29.64.92,43.65,2.3l-14.24,98.53A44.66,44.66,0,0,0,729.47,202.14Zm-18.15-54.21L715.68,116c-5.74-.23-11.25-.46-16.07-.46-26.19,0-39.05,24.58-39.05,51.68,0,17.23,5.51,27.11,17.22,27.11C691.11,194.33,706.73,180.78,711.32,147.93Zm144.47,48.69a46.67,46.67,0,0,0-.45,5.52,18.06,18.06,0,0,0,1.83,8.73c-5.74,2.75-10.79,4.36-16.76,4.36-7.35,0-11-4.36-11-12.17a20.23,20.23,0,0,1,.23-3.22l8.27-56.5a60.15,60.15,0,0,0,.69-8.5c0-11-4.14-18.15-13.78-18.15-17.92,0-30.78,17.23-35.84,53.75l-6,42.49H757L772.88,99a36.11,36.11,0,0,1,13.32-3.21c6.89,0,10.33,5.28,10.33,13.09a27.14,27.14,0,0,1-.23,3.68L794.93,124c10.79-19.75,24.34-28.25,41.11-28.25,18.61,0,28.94,11.94,28.94,31.93a81.94,81.94,0,0,1-.92,10.33Zm107-11h0a19.19,19.19,0,0,1-12.1,26.34,85.85,85.85,0,0,1-24.19,3.29c-28,0-43.18-16.54-43.18-45,0-40.66,22.28-74.42,61.55-74.42,23,0,35.61,11.71,35.61,31.47,0,29.63-23.2,42.49-53.29,42.49a90.74,90.74,0,0,1-19.53-2.07v2.53c0,16.08,6.66,25,21.59,25A60.71,60.71,0,0,0,962.83,185.6ZM909.31,153a162.18,162.18,0,0,0,17.46,1.15c16.54,0,28.71-8.73,28.71-23.66,0-8.73-5.05-14.24-14.93-14.24C923.32,116.23,913,132.77,909.31,153Z" transform="translate(-0.9)" fill="#282828"></path></svg>